<svg xmlns="http://www.w3.org/2000/svg" viewBox="0 0 64 64" shape-rendering="crispEdges" role="img" aria-labelledby="title">
  <title>FIFI pixel portrait icon</title>
  <rect width="64" height="64" rx="10" fill="#dce6dc"/>
  <rect x="6" y="6" width="52" height="52" rx="6" fill="#edf0e8"/>
  <rect x="12" y="26" width="10" height="18" fill="#3f3435"/>
  <rect x="8" y="30" width="10" height="12" fill="#3f3435"/>
  <rect x="42" y="26" width="10" height="18" fill="#3f3435"/>
  <rect x="46" y="30" width="10" height="12" fill="#3f3435"/>
  <rect x="18" y="14" width="28" height="10" fill="#3f3435"/>
  <rect x="16" y="20" width="32" height="12" fill="#3f3435"/>
  <rect x="20" y="24" width="24" height="22" fill="#f1c7ae"/>
  <rect x="22" y="20" width="8" height="8" fill="#3f3435"/>
  <rect x="34" y="20" width="8" height="8" fill="#3f3435"/>
  <rect x="18" y="28" width="4" height="8" fill="#f1c7ae"/>
  <rect x="42" y="28" width="4" height="8" fill="#f1c7ae"/>
  <rect x="24" y="32" width="4" height="4" fill="#26302f"/>
  <rect x="36" y="32" width="4" height="4" fill="#26302f"/>
  <rect x="28" y="40" width="8" height="2" fill="#a7636b"/>
  <rect x="20" y="38" width="4" height="4" fill="#df8a86"/>
  <rect x="40" y="38" width="4" height="4" fill="#df8a86"/>
  <rect x="18" y="46" width="28" height="10" fill="#607f77"/>
  <rect x="14" y="50" width="36" height="8" fill="#4f6f68"/>
  <rect x="30" y="46" width="4" height="12" fill="#edf0e8"/>
  <rect x="18" y="12" width="6" height="6" fill="#8a7968"/>
  <rect x="40" y="12" width="6" height="6" fill="#8a7968"/>
</svg>
